<?xml version="1.0" encoding="UTF-8"?>
<svg xmlns="http://www.w3.org/2000/svg" version="1.1" width="100" height="100" viewBox="0 0 100 100"><rect x="0" y="0" width="100" height="100" fill="#ffffff"/><g transform="scale(3.448)"><g transform="translate(0,0)"><path fill-rule="evenodd" d="M12 0L12 1L13 1L13 2L11 2L11 1L10 1L10 2L11 2L11 3L8 3L8 4L9 4L9 5L8 5L8 7L9 7L9 8L6 8L6 9L10 9L10 11L11 11L11 12L9 12L9 13L11 13L11 14L9 14L9 15L11 15L11 14L12 14L12 15L13 15L13 13L14 13L14 16L12 16L12 17L11 17L11 16L9 16L9 17L8 17L8 19L10 19L10 20L9 20L9 21L8 21L8 20L6 20L6 19L7 19L7 18L6 18L6 19L5 19L5 18L4 18L4 17L7 17L7 16L8 16L8 13L7 13L7 12L6 12L6 13L7 13L7 14L6 14L6 15L7 15L7 16L5 16L5 15L3 15L3 14L4 14L4 11L7 11L7 10L3 10L3 9L5 9L5 8L0 8L0 9L2 9L2 10L0 10L0 14L1 14L1 13L3 13L3 14L2 14L2 15L1 15L1 16L2 16L2 17L3 17L3 18L4 18L4 19L5 19L5 20L6 20L6 21L8 21L8 23L11 23L11 25L9 25L9 24L8 24L8 29L9 29L9 27L10 27L10 28L11 28L11 27L10 27L10 26L11 26L11 25L12 25L12 23L11 23L11 22L12 22L12 21L17 21L17 23L18 23L18 24L16 24L16 25L19 25L19 23L20 23L20 26L22 26L22 27L19 27L19 28L17 28L17 27L16 27L16 26L14 26L14 25L15 25L15 23L16 23L16 22L14 22L14 24L13 24L13 26L12 26L12 27L16 27L16 28L13 28L13 29L19 29L19 28L21 28L21 29L22 29L22 27L23 27L23 28L24 28L24 27L25 27L25 26L26 26L26 25L28 25L28 26L27 26L27 28L25 28L25 29L27 29L27 28L28 28L28 26L29 26L29 25L28 25L28 24L29 24L29 23L27 23L27 24L25 24L25 23L26 23L26 22L25 22L25 21L27 21L27 20L28 20L28 19L27 19L27 18L29 18L29 15L28 15L28 17L27 17L27 16L25 16L25 14L26 14L26 15L27 15L27 14L29 14L29 11L28 11L28 12L26 12L26 8L25 8L25 9L24 9L24 8L23 8L23 9L22 9L22 8L20 8L20 9L19 9L19 8L13 8L13 6L12 6L12 8L13 8L13 9L10 9L10 8L11 8L11 6L10 6L10 4L11 4L11 5L13 5L13 4L14 4L14 7L15 7L15 6L16 6L16 7L17 7L17 6L16 6L16 5L17 5L17 4L19 4L19 5L20 5L20 3L21 3L21 1L20 1L20 0L19 0L19 1L18 1L18 3L17 3L17 0L16 0L16 1L15 1L15 0L14 0L14 1L13 1L13 0ZM8 1L8 2L9 2L9 1ZM14 1L14 2L13 2L13 3L12 3L12 4L13 4L13 3L14 3L14 2L15 2L15 1ZM19 1L19 3L20 3L20 1ZM16 3L16 4L15 4L15 5L16 5L16 4L17 4L17 3ZM9 6L9 7L10 7L10 6ZM18 6L18 7L19 7L19 6ZM20 6L20 7L21 7L21 6ZM27 8L27 10L29 10L29 9L28 9L28 8ZM13 9L13 12L12 12L12 13L13 13L13 12L14 12L14 11L15 11L15 14L16 14L16 15L17 15L17 16L18 16L18 14L19 14L19 16L20 16L20 18L19 18L19 17L15 17L15 18L14 18L14 17L12 17L12 18L11 18L11 20L12 20L12 19L13 19L13 20L15 20L15 18L16 18L16 20L19 20L19 21L18 21L18 22L19 22L19 21L20 21L20 20L21 20L21 18L22 18L22 19L24 19L24 18L22 18L22 17L25 17L25 20L27 20L27 19L26 19L26 17L25 17L25 16L24 16L24 15L23 15L23 16L22 16L22 17L21 17L21 16L20 16L20 14L22 14L22 13L23 13L23 11L24 11L24 10L21 10L21 9L20 9L20 10L19 10L19 13L16 13L16 12L18 12L18 9L17 9L17 11L15 11L15 10L16 10L16 9ZM2 10L2 11L1 11L1 12L3 12L3 10ZM8 10L8 11L9 11L9 10ZM11 10L11 11L12 11L12 10ZM20 10L20 11L21 11L21 10ZM20 12L20 13L19 13L19 14L20 14L20 13L22 13L22 12ZM24 12L24 13L26 13L26 12ZM2 15L2 16L3 16L3 17L4 17L4 16L3 16L3 15ZM0 17L0 21L1 21L1 17ZM9 17L9 18L10 18L10 17ZM13 18L13 19L14 19L14 18ZM17 18L17 19L18 19L18 18ZM19 19L19 20L20 20L20 19ZM2 20L2 21L3 21L3 20ZM9 21L9 22L11 22L11 21ZM21 21L21 24L24 24L24 21ZM28 21L28 22L29 22L29 21ZM22 22L22 23L23 23L23 22ZM22 25L22 26L25 26L25 25ZM0 0L0 7L7 7L7 0ZM1 1L1 6L6 6L6 1ZM2 2L2 5L5 5L5 2ZM22 0L22 7L29 7L29 0ZM23 1L23 6L28 6L28 1ZM24 2L24 5L27 5L27 2ZM0 22L0 29L7 29L7 22ZM1 23L1 28L6 28L6 23ZM2 24L2 27L5 27L5 24Z" fill="#000000"/></g></g></svg>
