<?xml version="1.0" encoding="UTF-8"?>
<svg xmlns="http://www.w3.org/2000/svg" version="1.1" width="100" height="100" viewBox="0 0 100 100"><rect x="0" y="0" width="100" height="100" fill="#ffffff"/><g transform="scale(3.448)"><g transform="translate(0,0)"><path fill-rule="evenodd" d="M8 0L8 1L9 1L9 2L8 2L8 5L9 5L9 4L12 4L12 2L13 2L13 4L15 4L15 5L12 5L12 7L11 7L11 5L10 5L10 10L9 10L9 11L7 11L7 10L6 10L6 11L5 11L5 10L4 10L4 11L3 11L3 9L4 9L4 8L0 8L0 10L1 10L1 11L0 11L0 12L1 12L1 13L2 13L2 14L5 14L5 15L7 15L7 16L6 16L6 17L5 17L5 16L4 16L4 19L2 19L2 20L1 20L1 21L3 21L3 20L4 20L4 19L5 19L5 18L6 18L6 19L8 19L8 20L5 20L5 21L8 21L8 22L9 22L9 25L8 25L8 29L9 29L9 28L10 28L10 29L14 29L14 28L11 28L11 27L9 27L9 25L10 25L10 22L11 22L11 26L14 26L14 27L15 27L15 26L16 26L16 25L17 25L17 26L18 26L18 28L20 28L20 29L21 29L21 28L22 28L22 26L21 26L21 27L20 27L20 26L19 26L19 24L20 24L20 25L23 25L23 29L26 29L26 28L24 28L24 26L25 26L25 27L26 27L26 26L28 26L28 27L27 27L27 29L28 29L28 27L29 27L29 25L28 25L28 24L26 24L26 23L28 23L28 22L29 22L29 20L27 20L27 17L29 17L29 12L28 12L28 10L29 10L29 8L28 8L28 9L27 9L27 8L24 8L24 9L22 9L22 8L21 8L21 6L20 6L20 5L21 5L21 4L20 4L20 3L21 3L21 2L19 2L19 3L17 3L17 4L16 4L16 3L15 3L15 0L14 0L14 1L13 1L13 0L12 0L12 1L9 1L9 0ZM16 0L16 2L18 2L18 1L17 1L17 0ZM19 0L19 1L20 1L20 0ZM15 5L15 7L16 7L16 8L15 8L15 9L14 9L14 6L13 6L13 7L12 7L12 8L11 8L11 9L12 9L12 8L13 8L13 10L12 10L12 13L10 13L10 14L9 14L9 13L8 13L8 12L7 12L7 11L6 11L6 12L7 12L7 13L6 13L6 14L7 14L7 15L10 15L10 16L9 16L9 18L8 18L8 19L12 19L12 22L13 22L13 23L17 23L17 24L19 24L19 20L18 20L18 22L17 22L17 18L18 18L18 19L21 19L21 20L22 20L22 19L23 19L23 20L25 20L25 22L28 22L28 21L26 21L26 18L25 18L25 17L24 17L24 18L23 18L23 16L24 16L24 15L25 15L25 16L26 16L26 17L27 17L27 16L28 16L28 15L25 15L25 13L26 13L26 14L28 14L28 13L26 13L26 12L27 12L27 11L25 11L25 10L24 10L24 13L23 13L23 12L22 12L22 13L23 13L23 14L21 14L21 15L23 15L23 16L21 16L21 17L19 17L19 16L20 16L20 15L19 15L19 14L17 14L17 13L16 13L16 12L15 12L15 13L13 13L13 11L14 11L14 10L15 10L15 11L16 11L16 9L17 9L17 10L18 10L18 11L17 11L17 12L19 12L19 13L20 13L20 12L21 12L21 9L20 9L20 10L18 10L18 9L19 9L19 8L20 8L20 6L19 6L19 8L18 8L18 9L17 9L17 7L18 7L18 5L17 5L17 7L16 7L16 5ZM8 6L8 7L9 7L9 6ZM6 8L6 9L7 9L7 8ZM8 8L8 9L9 9L9 8ZM1 9L1 10L2 10L2 9ZM26 9L26 10L27 10L27 9ZM22 10L22 11L23 11L23 10ZM2 11L2 13L3 13L3 11ZM4 11L4 13L5 13L5 11ZM19 11L19 12L20 12L20 11ZM15 13L15 14L13 14L13 15L14 15L14 16L13 16L13 17L12 17L12 16L10 16L10 17L11 17L11 18L13 18L13 19L14 19L14 21L15 21L15 20L16 20L16 18L17 18L17 16L16 16L16 17L14 17L14 16L15 16L15 14L16 14L16 13ZM0 14L0 17L1 17L1 18L0 18L0 19L1 19L1 18L3 18L3 15L2 15L2 16L1 16L1 14ZM10 14L10 15L11 15L11 14ZM23 14L23 15L24 15L24 14ZM18 15L18 16L19 16L19 15ZM6 17L6 18L7 18L7 17ZM18 17L18 18L19 18L19 17ZM21 17L21 19L22 19L22 17ZM14 18L14 19L15 19L15 18ZM24 18L24 19L25 19L25 18ZM8 20L8 21L11 21L11 20ZM21 21L21 24L24 24L24 21ZM22 22L22 23L23 23L23 22ZM12 24L12 25L13 25L13 24ZM15 24L15 25L16 25L16 24ZM25 25L25 26L26 26L26 25ZM16 27L16 29L17 29L17 27ZM0 0L0 7L7 7L7 0ZM1 1L1 6L6 6L6 1ZM2 2L2 5L5 5L5 2ZM22 0L22 7L29 7L29 0ZM23 1L23 6L28 6L28 1ZM24 2L24 5L27 5L27 2ZM0 22L0 29L7 29L7 22ZM1 23L1 28L6 28L6 23ZM2 24L2 27L5 27L5 24Z" fill="#000000"/></g></g></svg>
